<svg width="15" height="12" viewBox="0 0 15 12" fill="none" xmlns="http://www.w3.org/2000/svg">
<g clip-path="url(#clip0_999_562)">
<path d="M14.8348 3.0483L14.7078 2.92467C14.489 2.71161 14.1324 2.71161 13.9135 2.92467L12.3006 4.49504C12.2736 4.52134 12.2493 4.55028 12.2304 4.57921L11.7251 4.08732C11.7549 4.06891 11.7846 4.04524 11.8116 4.01893L13.4245 2.44857C13.6434 2.2355 13.6434 1.88829 13.4245 1.67522L13.2975 1.55159C13.0787 1.33853 12.7221 1.33853 12.5032 1.55159L10.8903 3.12196C10.8633 3.14826 10.839 3.1772 10.8201 3.20613L10.2986 2.69846C10.3283 2.68005 10.3581 2.65637 10.3851 2.63007L11.998 1.0597C12.2169 0.846639 12.2169 0.499422 11.998 0.286358L11.871 0.162728C11.6522 -0.0503364 11.2956 -0.0503364 11.0767 0.162728L9.46379 1.73309C9.43678 1.7594 9.41246 1.78833 9.39355 1.81727L9.38544 1.80937C8.90724 2.27496 8.78296 2.48276 8.57222 2.74581C8.43713 2.91678 8.31556 3.09565 8.2291 3.29556C7.88598 4.09784 8.09131 4.83173 8.34528 5.32888C8.34257 5.33151 8.33717 5.33414 8.33447 5.33677L7.39697 6.24953L6.45947 5.33677C6.52971 5.08162 6.55943 4.77386 6.52971 4.40034C6.52971 4.40034 6.192 1.62524 3.80097 0.507314C3.03908 0.149576 2.03674 0.167989 1.38022 0.42314C0.89661 0.602009 0.440018 0.999203 0.172546 1.6647C-0.116539 2.38807 -0.0300832 3.2035 0.340054 3.89004C0.85068 4.83173 1.9746 6.1601 4.33321 6.52573C4.33321 6.52573 4.74928 6.58623 5.21938 6.47838C5.22748 6.4889 5.23559 6.49942 5.24369 6.50731L6.18119 7.42007L2.92831 10.5871C2.60951 10.8975 2.60951 11.4078 2.92831 11.7208L2.97154 11.7629C3.29034 12.0733 3.81448 12.0733 4.13598 11.7629L7.38886 8.59587L10.6417 11.7629C10.9606 12.0733 11.4847 12.0733 11.8062 11.7629L11.8494 11.7208C12.1682 11.4104 12.1682 10.9001 11.8494 10.5871L8.59654 7.42007L9.53404 6.50731C9.9447 6.6967 10.3554 6.75457 10.7282 6.74405C11.4604 6.72038 12.1493 6.39947 12.6734 5.90232L13.1354 5.4683L13.1273 5.4604C13.1571 5.44199 13.1868 5.41832 13.2138 5.39201L14.8267 3.82165C15.0456 3.60859 15.0456 3.26137 14.8267 3.0483H14.8348Z" fill="#666666"/>
</g>
<defs>
<clipPath id="clip0_999_562">
<rect width="15" height="12" fill="white"/>
</clipPath>
</defs>
</svg>
