<svg width="14" height="14" viewBox="0 0 14 14" fill="none" xmlns="http://www.w3.org/2000/svg">
<path d="M13.4953 4.39805L13.2192 4.67411L11.7453 6.14739L11.3919 6.50075L11.0384 6.14739L7.85576 2.96596L7.50202 2.61235L7.85576 2.25873L9.32959 0.785449L9.61078 0.504359C9.55471 0.510939 9.49963 0.524929 9.44701 0.54606C9.36664 0.57833 9.29369 0.62658 9.23257 0.687871L9.23134 0.689105L7.35255 2.56009L7.35169 2.56095L0.688313 9.22898L0.686776 9.23052C0.627508 9.28931 0.580496 9.35925 0.548443 9.43629C0.516389 9.51332 0.499926 9.59594 0.5 9.67936L0.500001 9.67981L0.5 12.8612C0.5 13.0306 0.567298 13.193 0.687148 13.3128C0.807004 13.4327 0.969603 13.5 1.13919 13.5H4.32059C4.49034 13.499 4.65287 13.4313 4.77308 13.3116L13.4953 4.39805ZM13.4953 4.39805C13.4783 4.53859 13.4154 4.67048 13.3153 4.77261L13.4953 4.39805ZM10.1582 0.70532L10.1582 0.705342L10.1622 0.709386L13.3141 3.86724C13.3145 3.86756 13.3148 3.86789 13.3151 3.86821C13.4154 3.97037 13.4783 4.10232 13.4953 4.24294L13.2192 3.96687L10.0366 0.785449L9.75603 0.50502C9.90829 0.524379 10.0502 0.59465 10.1582 0.70532Z" fill="#666666" stroke="#666666"/>
<line x1="1.5" y1="13.5" x2="13.5" y2="13.5" stroke="#666666" stroke-linecap="round"/>
</svg>
