<svg width="15" height="15" viewBox="0 0 15 15" fill="none" xmlns="http://www.w3.org/2000/svg">
<path d="M7.022 0.557671C7.16656 0.0865818 7.83344 0.0865809 7.978 0.55767L9.29995 4.86553C9.36438 5.07551 9.55831 5.21885 9.77795 5.21885H14.114C14.5914 5.21885 14.7973 5.82405 14.4189 6.11515L10.8627 8.85085C10.6974 8.97802 10.6284 9.19445 10.6895 9.39384L12.0361 13.782C12.1791 14.2478 11.6394 14.6221 11.2533 14.325L7.80487 11.6722C7.62514 11.534 7.37486 11.534 7.19513 11.6722L3.74673 14.325C3.3606 14.6221 2.82094 14.2478 2.96386 13.782L4.31046 9.39384C4.37164 9.19445 4.30264 8.97802 4.13732 8.85085L0.581139 6.11515C0.202736 5.82405 0.408589 5.21885 0.886006 5.21885H5.22205C5.44169 5.21885 5.63562 5.07551 5.70005 4.86553L7.022 0.557671Z" fill="#F2F2F2"/>
</svg>
